<?xml version="1.0" standalone="no"?>
<!DOCTYPE svg PUBLIC "-//W3C//DTD SVG 20010904//EN"
 "http://www.w3.org/TR/2001/REC-SVG-20010904/DTD/svg10.dtd">
<svg version="1.0" xmlns="http://www.w3.org/2000/svg"
 width="519.000000pt" height="519.000000pt" viewBox="0 0 519.000000 519.000000"
 preserveAspectRatio="xMidYMid meet">
<metadata>
Created by potrace 1.14, written by Peter Selinger 2001-2017
</metadata>
<g transform="translate(0.000000,519.000000) scale(0.100000,-0.100000)"
fill="#000000" stroke="none">
<path d="M4379 5033 l-103 -156 24 -16 c14 -9 57 -42 96 -73 40 -32 81 -58 92
-58 41 0 163 159 178 232 8 40 -16 104 -54 143 -37 38 -104 85 -121 85 -5 0
-55 -70 -112 -157z"/>
<path d="M5068 4723 c-8 -10 -57 -81 -108 -158 -52 -77 -113 -169 -137 -204
-74 -107 -111 -199 -137 -331 -3 -14 -8 -36 -11 -50 -3 -14 -10 -56 -16 -95
-15 -103 -25 -127 -70 -171 -23 -21 -49 -56 -58 -76 l-17 -37 -33 67 -33 67
21 52 c53 135 65 250 36 334 -54 151 -200 147 -355 -10 -92 -92 -226 -264
-262 -334 -26 -52 -32 -58 -53 -53 -52 13 -77 27 -115 65 -42 42 -60 76 -60
117 l0 24 -39 -19 c-80 -41 -153 -159 -191 -307 -11 -43 -20 -99 -20 -125 0
-46 -2 -49 -43 -74 -24 -14 -59 -25 -77 -25 -34 0 -41 6 -167 144 -28 31 -57
56 -65 56 -8 0 -25 -17 -38 -37 -20 -32 -28 -38 -57 -37 -19 1 -64 -8 -101
-18 -37 -11 -74 -21 -84 -23 -9 -2 -107 -29 -218 -59 -110 -31 -211 -58 -223
-60 -12 -3 -83 -21 -157 -41 -74 -19 -147 -38 -163 -40 -15 -3 -60 -12 -100
-21 -39 -8 -88 -17 -107 -20 -19 -2 -44 -6 -55 -9 -111 -23 -478 -24 -626 -1
-13 3 -46 7 -74 11 -27 3 -66 9 -85 11 -55 8 -296 53 -393 73 l-87 18 -66 -89
c-309 -421 -374 -591 -304 -798 84 -251 276 -396 592 -445 88 -14 449 -15 518
-1 14 2 50 7 80 10 30 4 66 8 80 11 14 2 41 6 60 9 34 6 52 9 130 22 19 3 46
8 60 10 52 9 270 56 400 86 74 18 140 33 145 34 134 28 559 149 810 231 159
52 505 174 550 193 11 5 85 34 164 65 78 30 157 61 175 69 17 8 96 42 176 76
465 199 824 404 917 524 51 64 27 58 -402 -101 -782 -291 -1243 -430 -1946
-587 -135 -30 -257 -57 -270 -60 -13 -2 -112 -22 -219 -44 -216 -45 -567 -108
-645 -117 -27 -3 -57 -8 -65 -10 -8 -2 -37 -7 -65 -10 -27 -3 -63 -7 -80 -9
-16 -2 -62 -7 -102 -11 -40 -4 -85 -8 -100 -10 -46 -7 -345 -7 -386 -1 -20 3
-54 8 -75 11 -20 3 -62 12 -92 21 -198 57 -278 182 -246 386 l7 47 507 -2
c279 0 553 2 608 6 335 22 604 96 1221 336 176 68 210 67 332 -11 50 -31 137
-32 220 -1 36 13 69 27 75 32 6 5 58 34 115 64 l103 55 47 -29 c77 -48 222
-65 346 -39 68 14 163 58 215 99 61 49 112 65 236 77 99 9 206 39 255 70 129
81 251 259 328 479 33 93 180 662 188 728 5 42 3 45 -19 20z m-753 -787 c64
-49 84 -122 45 -164 -67 -72 -178 -70 -277 5 -62 46 -36 120 60 168 65 33 121
30 172 -9z"/>
<path d="M1866 1722 c-10 -26 -27 -65 -37 -87 -80 -183 -379 -889 -379 -896 0
-25 30 -4 48 34 11 23 29 63 41 89 38 79 86 85 271 29 70 -22 111 -28 156 -26
58 2 156 28 179 46 7 5 28 -26 58 -86 26 -52 51 -95 57 -96 5 0 31 -1 58 -2
38 0 46 3 44 15 -2 15 -43 105 -139 308 -20 41 -98 208 -174 372 -75 163 -143
308 -151 322 l-13 25 -19 -47z m47 -277 c35 -77 87 -187 114 -245 116 -246
117 -249 103 -265 -19 -23 -84 -18 -194 15 -141 43 -172 45 -267 20 -45 -11
-83 -19 -85 -18 -2 2 56 146 128 321 72 174 132 316 134 315 1 -2 31 -66 67
-143z"/>
<path d="M3763 1760 c-144 -33 -208 -179 -139 -322 33 -69 56 -94 206 -220
128 -107 151 -133 174 -202 28 -81 15 -147 -40 -202 -43 -42 -72 -55 -141 -61
-105 -10 -234 56 -285 147 -23 39 -41 50 -53 30 -19 -30 77 -128 174 -177 50
-25 67 -28 151 -28 74 0 103 4 130 19 61 33 109 77 138 124 24 41 27 57 27
132 0 123 -25 160 -210 318 -181 155 -225 210 -225 287 0 104 108 155 219 105
53 -24 51 -24 51 -2 0 35 -110 67 -177 52z"/>
<path d="M312 1242 c3 -443 5 -507 18 -507 13 0 15 60 18 467 l2 467 48 -51
c26 -29 54 -59 62 -68 99 -106 228 -246 240 -260 8 -9 63 -68 121 -131 123
-132 132 -141 259 -279 114 -125 152 -162 158 -156 2 3 4 230 4 506 1 488 -2
543 -29 516 -4 -4 -8 -191 -9 -414 -1 -224 -2 -408 -3 -409 0 -1 -34 33 -73
75 -40 42 -94 100 -119 127 -26 28 -56 59 -66 71 -10 12 -65 72 -123 134 -58
62 -116 124 -129 139 -13 14 -77 83 -142 152 l-118 126 -61 1 -60 1 2 -507z"/>
<path d="M2539 1746 c-1 0 -2 -229 -3 -509 l-1 -507 63 0 63 0 -1 178 c0 97
-1 272 0 389 l0 211 209 0 c115 0 214 2 220 6 32 20 -17 26 -215 26 -164 0
-214 3 -215 13 -2 33 3 152 6 156 3 2 83 4 179 5 169 1 194 4 182 24 -4 7
-480 15 -487 8z"/>
<path d="M3196 1741 c-2 -3 -4 -232 -4 -509 l0 -503 62 3 61 3 0 490 c1 270
-1 498 -3 507 -3 14 -15 17 -58 17 -30 -1 -56 -4 -58 -8z"/>
<path d="M4310 1239 l0 -509 60 0 60 0 0 510 0 510 -60 -1 -60 -1 0 -509z"/>
<path d="M4733 1595 c-94 -143 -116 -185 -95 -185 4 0 50 -33 102 -74 92 -73
95 -74 122 -60 36 19 113 114 144 179 27 57 30 101 10 149 -21 50 -130 146
-166 146 -8 0 -61 -69 -117 -155z"/>
<path d="M4757 1080 c-59 -88 -107 -164 -107 -169 0 -5 11 -16 23 -24 13 -8
58 -43 99 -76 42 -34 84 -61 93 -61 38 0 164 160 182 230 13 50 3 92 -34 144
-26 37 -124 116 -144 116 -3 0 -54 -72 -112 -160z"/>
<path d="M1400 480 c-100 -27 -161 -106 -163 -209 -1 -95 56 -173 150 -206 30
-11 34 -15 21 -20 -10 -4 -15 -11 -12 -16 3 -5 13 -5 24 1 15 8 30 6 62 -10
53 -25 84 -25 127 1 37 22 37 34 0 21 -15 -6 -39 -5 -64 3 l-40 11 35 18 c129
67 166 224 78 330 -51 62 -146 95 -218 76z m92 -20 c38 -11 82 -55 100 -99 6
-14 12 -53 14 -86 7 -138 -90 -227 -203 -189 -50 17 -79 52 -98 119 -30 103
10 216 89 251 38 16 51 17 98 4z"/>
<path d="M278 463 c-2 -10 -3 -77 -2 -150 1 -109 4 -137 21 -170 45 -86 186
-114 264 -51 46 38 52 63 54 224 1 85 -2 157 -6 160 -5 3 -9 -41 -9 -98 -1
-166 -6 -215 -24 -242 -30 -47 -68 -62 -144 -57 -12 0 -39 16 -60 35 l-37 34
-3 166 c-3 166 -3 166 -27 166 -13 0 -24 -7 -27 -17z"/>
<path d="M668 473 c-9 -19 -2 -403 7 -403 6 0 11 69 11 176 1 96 4 177 7 180
2 3 19 -12 37 -33 18 -21 77 -85 130 -143 54 -58 115 -124 137 -148 22 -23 42
-42 46 -42 4 0 7 94 7 210 0 133 -4 210 -10 210 -10 0 -13 -82 -10 -260 l1
-75 -57 60 c-31 33 -101 108 -156 168 -72 77 -106 107 -123 107 -13 0 -25 -3
-27 -7z"/>
<path d="M1138 473 c-3 -7 -2 -334 1 -390 1 -17 7 -23 26 -23 l25 0 0 210 0
210 -24 0 c-14 0 -26 -3 -28 -7z"/>
<path d="M1719 463 c-1 -10 -1 -77 -1 -149 0 -118 2 -136 22 -172 49 -87 184
-113 261 -50 46 38 53 64 56 224 1 90 -2 156 -7 159 -6 4 -10 -48 -11 -137 -1
-163 -2 -170 -23 -203 -39 -59 -130 -78 -184 -38 -53 38 -62 74 -62 236 l0
147 -25 0 c-17 0 -25 -6 -26 -17z"/>
<path d="M2107 473 c-2 -5 -3 -98 -3 -208 l1 -200 128 -3 c78 -2 127 1 127 7
0 6 -36 10 -87 10 -49 -1 -94 0 -100 0 -10 1 -13 38 -13 150 l0 150 78 0 c108
0 109 0 95 9 -7 4 -49 7 -93 6 l-80 -1 0 33 0 34 75 0 c43 0 75 4 75 10 0 12
-197 14 -203 3z"/>
<path d="M2660 271 l0 -211 124 0 c73 0 127 4 131 10 4 6 -31 10 -97 10 l-103
0 0 197 0 198 -27 3 -28 3 0 -210z"/>
<path d="M2957 473 c-3 -7 -2 -368 2 -400 1 -16 251 -19 251 -3 0 6 -32 9 -77
9 -139 -2 -123 -21 -123 151 l0 150 73 -1 c101 -1 114 0 100 9 -7 4 -49 7 -93
6 l-80 -2 0 34 0 34 75 0 c43 0 75 4 75 10 0 12 -197 14 -203 3z"/>
<path d="M3361 352 c-29 -70 -69 -162 -87 -205 -37 -86 -38 -87 -26 -87 5 0
17 18 27 40 15 33 23 40 46 40 15 0 39 -4 53 -10 33 -12 82 -15 126 -6 34 7
36 6 48 -28 11 -30 18 -36 43 -36 16 0 29 2 29 4 0 2 -27 62 -61 132 -33 71
-76 164 -96 207 -20 42 -39 77 -42 77 -3 0 -30 -57 -60 -128z m151 -204 c-6
-6 -32 -3 -67 7 -36 11 -74 15 -100 11 l-43 -5 45 107 c24 59 47 114 51 122 4
9 28 -32 64 -109 36 -75 55 -128 50 -133z"/>
<path d="M3566 471 c5 -6 38 -11 73 -13 l65 -3 -1 -198 -1 -198 27 3 26 3 2
190 c1 105 2 193 2 198 1 4 33 7 71 7 40 0 70 4 70 10 0 6 -64 10 -172 10
-108 0 -168 -4 -162 -9z"/>
<path d="M3940 270 l0 -210 25 0 c17 0 25 6 26 18 1 9 2 77 3 151 1 124 2 135
21 141 11 4 35 1 55 -7 68 -27 111 -33 148 -17 19 8 35 14 36 14 1 0 2 -57 1
-127 -1 -163 1 -173 31 -173 l24 0 0 210 0 210 -24 0 c-27 0 -37 -18 -31 -52
12 -59 -34 -76 -113 -42 -35 15 -99 21 -132 13 -10 -3 -15 6 -16 29 -1 17 -2
37 -3 42 0 6 -12 10 -26 10 l-25 0 0 -210z"/>
<path d="M4360 270 l0 -210 130 0 c72 0 130 4 130 9 0 5 -42 9 -92 9 -51 0
-97 1 -103 1 -6 1 -10 59 -10 151 l-1 151 41 -2 c75 -3 136 1 131 9 -3 5 -36
7 -73 6 -91 -3 -99 0 -99 36 l0 30 73 0 c42 0 73 4 73 10 0 6 -40 10 -100 10
l-100 0 0 -210z"/>
<path d="M4674 472 c-8 -5 -12 -69 -13 -210 l-1 -203 27 3 c26 3 28 6 28 51 0
26 1 47 3 47 2 0 24 -16 50 -36 89 -68 161 -83 200 -41 26 28 27 40 6 61 -22
22 -31 20 -46 -11 -12 -24 -19 -28 -55 -27 -28 0 -56 10 -85 29 l-43 29 50 11
c28 6 64 19 81 28 38 20 94 81 95 105 0 9 2 28 3 40 4 34 -33 84 -79 106 -41
21 -198 33 -221 18z m195 -40 c39 -28 52 -61 48 -115 -4 -52 -32 -91 -77 -109
-38 -16 -110 -26 -116 -17 -4 8 -6 102 -5 235 l1 40 61 -7 c36 -4 73 -15 88
-27z"/>
<path d="M2857 443 c-3 -16 -11 -46 -17 -68 -9 -31 -9 -47 0 -70 12 -30 12
-30 32 43 19 68 18 122 -1 122 -5 0 -11 -12 -14 -27z"/>
</g>
</svg>
